<svg xmlns="http://www.w3.org/2000/svg" width="92" height="91" viewBox="0 0 92 91"><g transform="translate(-111 -2119)"><g transform="translate(111 2119)" fill="none" stroke="#dcb97b" stroke-width="2"><ellipse cx="46" cy="45.5" rx="46" ry="45.5" stroke="none"/><ellipse cx="46" cy="45.5" rx="45" ry="44.5" fill="none"/></g><path d="M27.109,3.489V22.536c0,.875-.019,1.755,0,2.63V25.2l1.923-1.923H14.668L16.591,25.2a5.729,5.729,0,0,0-1-3.245,6.53,6.53,0,0,0-1.452-1.481,5.692,5.692,0,0,0-1.51-.779A5.808,5.808,0,0,0,6.4,21.373a6,6,0,0,0-1.452,3.836L6.87,23.286H5.1a16.542,16.542,0,0,1-1.827-.014c.168.024.341.048.51.067a1.951,1.951,0,0,1-.375-.1c.154.062.308.13.462.192a1.7,1.7,0,0,1-.385-.221l.389.3a1.719,1.719,0,0,1-.264-.264l.3.389a1.7,1.7,0,0,1-.221-.385c.062.154.13.308.192.462a1.72,1.72,0,0,1-.1-.375c.024.168.048.341.067.51a6.747,6.747,0,0,1-.014-.7V5.927c0-.8-.01-1.606,0-2.4A1.783,1.783,0,0,1,3.856,3.3c-.024.168-.048.341-.067.51a1.951,1.951,0,0,1,.1-.375c-.062.154-.13.308-.192.462a1.7,1.7,0,0,1,.221-.385l-.3.389a1.719,1.719,0,0,1,.264-.264l-.389.3a1.7,1.7,0,0,1,.385-.221c-.154.062-.308.13-.462.192a1.72,1.72,0,0,1,.375-.1c-.168.024-.341.048-.51.067a7.525,7.525,0,0,1,.808-.014H24.576c.957,0,1.913-.014,2.87,0a1.859,1.859,0,0,1,.231.014c-.168-.024-.341-.048-.51-.067a1.951,1.951,0,0,1,.375.1c-.154-.062-.308-.13-.462-.192a1.7,1.7,0,0,1,.385.221l-.389-.3a1.719,1.719,0,0,1,.264.264l-.3-.389a1.7,1.7,0,0,1,.221.385c-.062-.154-.13-.308-.192-.462a1.72,1.72,0,0,1,.1.375c-.024-.168-.048-.341-.067-.51a1.2,1.2,0,0,1,.014.192,2,2,0,0,0,.562,1.361,1.924,1.924,0,0,0,3.284-1.361,3.656,3.656,0,0,0-.933-2.37A3.279,3.279,0,0,0,28.186.09a5.222,5.222,0,0,0-.865-.082H6.327c-.947,0-1.9-.019-2.846,0A3.545,3.545,0,0,0,.135,2.523,3.743,3.743,0,0,0,0,3.633V23.642a3.833,3.833,0,0,0,.423,1.673,3.228,3.228,0,0,0,1.51,1.442,3.877,3.877,0,0,0,1.611.375H6.875A1.951,1.951,0,0,0,8.8,25.209a3.984,3.984,0,0,1,.038-.534c-.024.168-.048.341-.067.51a4.124,4.124,0,0,1,.274-1c-.062.154-.13.308-.192.462a4.066,4.066,0,0,1,.514-.87l-.3.389A4,4,0,0,1,9.73,23.5l-.389.3a4.066,4.066,0,0,1,.87-.514c-.154.062-.308.13-.462.192a4.028,4.028,0,0,1,1-.274c-.168.024-.341.048-.51.067a3.967,3.967,0,0,1,1.067,0c-.168-.024-.341-.048-.51-.067a4.124,4.124,0,0,1,1,.274c-.154-.062-.308-.13-.462-.192a4.066,4.066,0,0,1,.87.514l-.389-.3a4,4,0,0,1,.668.668l-.3-.389a4.066,4.066,0,0,1,.514.87c-.062-.154-.13-.308-.192-.462a4.028,4.028,0,0,1,.274,1c-.024-.168-.048-.341-.067-.51a4.978,4.978,0,0,1,.038.534,1.954,1.954,0,0,0,1.923,1.923H29.028a1.951,1.951,0,0,0,1.923-1.923V6.162c0-.875.014-1.755,0-2.63V3.494a1.921,1.921,0,0,0-3.841,0Z" transform="translate(142.133 2149.303)" fill="#dcb97b"/><path d="M38.707,11.121v5.606a8.206,8.206,0,0,1-.014.909c.024-.168.048-.341.067-.51a1.951,1.951,0,0,1-.1.375c.062-.154.13-.308.192-.462a1.7,1.7,0,0,1-.221.385l.3-.389a1.719,1.719,0,0,1-.264.264l.389-.3a1.7,1.7,0,0,1-.385.221c.154-.062.308-.13.462-.192a1.72,1.72,0,0,1-.375.1c.168-.024.341-.048.51-.067a14.363,14.363,0,0,1-1.51.014H36.313l1.923,1.923a5.729,5.729,0,0,0-1-3.245,6.53,6.53,0,0,0-1.452-1.481,5.692,5.692,0,0,0-1.51-.779,5.806,5.806,0,0,0-6.235,1.673A6,6,0,0,0,26.593,19l1.923-1.923H24.093L26.016,19V4.04c0-.692.014-1.385,0-2.077V1.934L24.093,3.857h7.543a10.663,10.663,0,0,1,1.24.019c-.168-.024-.341-.048-.51-.067a2.515,2.515,0,0,1,.5.135c-.154-.062-.308-.13-.462-.192a2.2,2.2,0,0,1,.5.293l-.389-.3a6.481,6.481,0,0,1,.827.913q.7.837,1.4,1.673,1.637,1.954,3.279,3.913c.264.317.534.63.793.947l-.3-.389a2.524,2.524,0,0,1,.274.466c-.062-.154-.13-.308-.192-.462a2.373,2.373,0,0,1,.144.519c-.024-.168-.048-.341-.067-.51a1.312,1.312,0,0,1,.034.308,2,2,0,0,0,.562,1.361,1.924,1.924,0,0,0,3.284-1.361,4.349,4.349,0,0,0-.5-1.942,4.615,4.615,0,0,0-.572-.793c-.087-.1-.168-.2-.255-.3l-1.26-1.5L36.558,2.506c-.312-.375-.625-.75-.937-1.12A4.051,4.051,0,0,0,32.515.006c-1.389,0-2.784,0-4.173,0s-2.784-.014-4.173,0H24.1a1.951,1.951,0,0,0-1.923,1.923V16.885c0,.692-.01,1.385,0,2.077v.029A1.951,1.951,0,0,0,24.1,20.914H28.52a1.951,1.951,0,0,0,1.923-1.923,3.984,3.984,0,0,1,.038-.534c-.024.168-.048.341-.067.51a4.124,4.124,0,0,1,.274-1c-.062.154-.13.308-.192.462a4.066,4.066,0,0,1,.514-.87l-.3.389a4,4,0,0,1,.668-.668l-.389.3a4.066,4.066,0,0,1,.87-.514c-.154.062-.308.13-.462.192a4.028,4.028,0,0,1,1-.274c-.168.024-.341.048-.51.067a3.967,3.967,0,0,1,1.067,0c-.168-.024-.341-.048-.51-.067a4.124,4.124,0,0,1,1,.274c-.154-.062-.308-.13-.462-.192a4.066,4.066,0,0,1,.87.514l-.389-.3a4,4,0,0,1,.668.668l-.3-.389a4.066,4.066,0,0,1,.514.87c-.062-.154-.13-.308-.192-.462a4.028,4.028,0,0,1,.274,1c-.024-.168-.048-.341-.067-.51a4.978,4.978,0,0,1,.038.534,1.954,1.954,0,0,0,1.923,1.923h2.284a4.538,4.538,0,0,0,1.5-.159,3.432,3.432,0,0,0,1.558-1,3.308,3.308,0,0,0,.519-.774,3.967,3.967,0,0,0,.361-1.346c.053-.538.014-1.1.014-1.639v-4.87a1.921,1.921,0,1,0-3.841,0ZM7.8,18.986a3.984,3.984,0,0,1-.038.534c.024-.168.048-.341.067-.51a4.124,4.124,0,0,1-.274,1c.062-.154.13-.308.192-.462a4.066,4.066,0,0,1-.514.87l.3-.389a4,4,0,0,1-.668.668l.389-.3a4.066,4.066,0,0,1-.87.514c.154-.062.308-.13.462-.192a4.028,4.028,0,0,1-1,.274c.168-.024.341-.048.51-.067a3.967,3.967,0,0,1-1.067,0c.168.024.341.048.51.067a4.124,4.124,0,0,1-1-.274c.154.062.308.13.462.192a4.066,4.066,0,0,1-.87-.514l.389.3a4,4,0,0,1-.668-.668l.3.389a4.066,4.066,0,0,1-.514-.87c.062.154.13.308.192.462a4.028,4.028,0,0,1-.274-1c.024.168.048.341.067.51a3.967,3.967,0,0,1,0-1.067c-.024.168-.048.341-.067.51a4.124,4.124,0,0,1,.274-1c-.062.154-.13.308-.192.462a4.066,4.066,0,0,1,.514-.87l-.3.389A4,4,0,0,1,4.8,17.28l-.389.3a4.066,4.066,0,0,1,.87-.514c-.154.062-.308.13-.462.192a4.028,4.028,0,0,1,1-.274c-.168.024-.341.048-.51.067a3.967,3.967,0,0,1,1.067,0c-.168-.024-.341-.048-.51-.067a4.124,4.124,0,0,1,1,.274c-.154-.062-.308-.13-.462-.192a4.066,4.066,0,0,1,.87.514l-.389-.3a4,4,0,0,1,.668.668l-.3-.389a4.066,4.066,0,0,1,.514.87c-.062-.154-.13-.308-.192-.462a4.028,4.028,0,0,1,.274,1c-.024-.168-.048-.341-.067-.51a3.322,3.322,0,0,1,.038.534,2,2,0,0,0,.562,1.361,1.924,1.924,0,0,0,3.284-1.361,5.718,5.718,0,0,0-1.014-3.274A6.75,6.75,0,0,0,9.2,14.256a5.554,5.554,0,0,0-1.51-.779,5.555,5.555,0,0,0-1.731-.308,5.774,5.774,0,0,0-4.529,2,6.525,6.525,0,0,0-1.062,1.8A5.872,5.872,0,0,0,.017,18.65,5.782,5.782,0,0,0,3.262,24.2a6.475,6.475,0,0,0,2.091.572,5.657,5.657,0,0,0,1.707-.111,5.6,5.6,0,0,0,3.13-1.846,6,6,0,0,0,1.452-3.836,1.941,1.941,0,0,0-1.923-1.923A1.966,1.966,0,0,0,7.8,18.986Z" transform="translate(136.074 2155.521)" fill="#dcb97b"/><path d="M7.8,5.82a3.984,3.984,0,0,1-.038.534c.024-.168.048-.341.067-.51a4.124,4.124,0,0,1-.274,1c.062-.154.13-.308.192-.462a4.066,4.066,0,0,1-.514.87l.3-.389a4,4,0,0,1-.668.668l.389-.3a4.066,4.066,0,0,1-.87.514c.154-.062.308-.13.462-.192a4.028,4.028,0,0,1-1,.274c.168-.024.341-.048.51-.067a3.967,3.967,0,0,1-1.067,0c.168.024.341.048.51.067a4.124,4.124,0,0,1-1-.274c.154.062.308.13.462.192a4.066,4.066,0,0,1-.87-.514l.389.3a4,4,0,0,1-.668-.668l.3.389a4.066,4.066,0,0,1-.514-.87c.062.154.13.308.192.462a4.028,4.028,0,0,1-.274-1c.024.168.048.341.067.51a3.967,3.967,0,0,1,0-1.067c-.024.168-.048.341-.067.51a4.124,4.124,0,0,1,.274-1c-.062.154-.13.308-.192.462a4.066,4.066,0,0,1,.514-.87l-.3.389A4,4,0,0,1,4.8,4.113l-.389.3a4.066,4.066,0,0,1,.87-.514c-.154.062-.308.13-.462.192a4.028,4.028,0,0,1,1-.274c-.168.024-.341.048-.51.067a3.967,3.967,0,0,1,1.067,0c-.168-.024-.341-.048-.51-.067a4.124,4.124,0,0,1,1,.274c-.154-.062-.308-.13-.462-.192a4.066,4.066,0,0,1,.87.514l-.389-.3a4,4,0,0,1,.668.668l-.3-.389a4.066,4.066,0,0,1,.514.87c-.062-.154-.13-.308-.192-.462a4.028,4.028,0,0,1,.274,1c-.024-.168-.048-.341-.067-.51A3.984,3.984,0,0,1,7.8,5.82,2,2,0,0,0,8.367,7.18,1.924,1.924,0,0,0,11.651,5.82a5.718,5.718,0,0,0-1.014-3.274A6.75,6.75,0,0,0,9.2,1.089,5.554,5.554,0,0,0,7.694.311,5.555,5.555,0,0,0,5.964,0,5.671,5.671,0,0,0,4.238.219a5.728,5.728,0,0,0-2.8,1.788,6.525,6.525,0,0,0-1.062,1.8A5.872,5.872,0,0,0,.017,5.483a5.782,5.782,0,0,0,3.245,5.553,6.475,6.475,0,0,0,2.091.572A5.657,5.657,0,0,0,7.06,11.5a5.6,5.6,0,0,0,3.13-1.846,6,6,0,0,0,1.452-3.836A1.941,1.941,0,0,0,9.718,3.892,1.966,1.966,0,0,0,7.8,5.82Z" transform="translate(151.222 2168.687)" fill="#dcb97b"/></g></svg>