<svg xmlns="http://www.w3.org/2000/svg" width="90" height="91" viewBox="0 0 90 91"><g transform="translate(-392 -2119)"><g transform="translate(392 2119)" fill="none" stroke="#dcb97b" stroke-width="2"><ellipse cx="45" cy="45.5" rx="45" ry="45.5" stroke="none"/><ellipse cx="45" cy="45.5" rx="44" ry="44.5" fill="none"/></g><path d="M42.248,3.911V27.934c0,1.07,0,2.14,0,3.209a2.037,2.037,0,0,1-.019.293c.024-.166.047-.336.066-.5a2.216,2.216,0,0,1-.128.492c.062-.151.128-.3.189-.454a2.215,2.215,0,0,1-.279.483l.3-.383a2.228,2.228,0,0,1-.35.35l.383-.3a2.246,2.246,0,0,1-.483.279c.151-.062.3-.128.454-.189a2.216,2.216,0,0,1-.492.128c.166-.024.336-.047.5-.066a10.662,10.662,0,0,1-1.231.019H3.963a2.306,2.306,0,0,1-.312-.019c.166.024.336.047.5.066a2.216,2.216,0,0,1-.492-.128c.151.062.3.128.454.189a2.215,2.215,0,0,1-.483-.279l.383.3a2.229,2.229,0,0,1-.35-.35l.3.383a2.246,2.246,0,0,1-.279-.483c.062.151.128.3.189.454a2.216,2.216,0,0,1-.128-.492c.024.166.047.336.066.5a8.938,8.938,0,0,1-.019-.942V7.187c0-1.079,0-2.158,0-3.242a2.037,2.037,0,0,1,.019-.293c-.024.166-.047.336-.066.5a2.216,2.216,0,0,1,.128-.492c-.062.151-.128.3-.189.454a2.215,2.215,0,0,1,.279-.483l-.3.383a2.229,2.229,0,0,1,.35-.35l-.383.3a2.246,2.246,0,0,1,.483-.279c-.151.062-.3.128-.454.189a2.216,2.216,0,0,1,.492-.128c-.166.024-.336.047-.5.066a10.662,10.662,0,0,1,1.231-.019h37.2a2.306,2.306,0,0,1,.312.019c-.166-.024-.336-.047-.5-.066a2.216,2.216,0,0,1,.492.128c-.151-.062-.3-.128-.454-.189a2.215,2.215,0,0,1,.483.279l-.383-.3a2.228,2.228,0,0,1,.35.35l-.3-.383a2.245,2.245,0,0,1,.279.483c-.062-.151-.128-.3-.189-.454a2.216,2.216,0,0,1,.128.492c-.024-.166-.047-.336-.066-.5a1.568,1.568,0,0,1,.019.26,1.966,1.966,0,0,0,.554,1.34,1.894,1.894,0,0,0,3.233-1.34,4.028,4.028,0,0,0-1.1-2.722A4,4,0,0,0,42.29.006c-.118-.009-.241,0-.364,0H4.025A4.407,4.407,0,0,0,2.141.432,3.675,3.675,0,0,0,.418,2.169,4.162,4.162,0,0,0,0,3.925V30.9c0,.137,0,.275,0,.412A3.991,3.991,0,0,0,1.17,33.964a3.994,3.994,0,0,0,2.708,1.122c.289,0,.573,0,.862,0H42.03a4.249,4.249,0,0,0,1.983-.483,3.942,3.942,0,0,0,2.026-3.446c0-.478,0-.951,0-1.43V3.911a1.9,1.9,0,0,0-3.792,0Z" transform="translate(413.653 2146.898)" fill="#dcb97b"/><path d="M42.247,1.9v6.49L44.14,6.492H3.607c-.549,0-1.1-.009-1.643,0H1.893L3.787,8.385V1.9L1.893,3.789H42.427c.549,0,1.1,0,1.643,0h.071A1.914,1.914,0,0,0,46.033,1.9,1.927,1.927,0,0,0,44.14,0H3.607c-.549,0-1.1,0-1.643,0H1.893A1.921,1.921,0,0,0,0,1.9v6.49a1.921,1.921,0,0,0,1.893,1.893H42.427c.549,0,1.1,0,1.643,0h.071a1.921,1.921,0,0,0,1.893-1.893V1.9a1.893,1.893,0,1,0-3.787,0ZM8.752,18.927h11.7a1.893,1.893,0,0,0,0-3.787H8.752a1.893,1.893,0,1,0,0,3.787Z" transform="translate(413.653 2154.063)" fill="#dcb97b"/></g></svg>