<svg xmlns="http://www.w3.org/2000/svg" width="90.884" height="90.884" viewBox="0 0 90.884 90.884"><g transform="translate(-682.349 -2119)"><g transform="translate(682.349 2119)" fill="none" stroke="#dcb97b" stroke-width="2"><circle cx="45.442" cy="45.442" r="45.442" stroke="none"/><circle cx="45.442" cy="45.442" r="44.442" fill="none"/></g><path d="M3.134,1.4c-.3,1.335-.592,2.67-.89,4Q1.52,8.68.8,11.949c-.118.54-.241,1.079-.36,1.619a16.874,16.874,0,0,0,4.1,15.318A16.542,16.542,0,0,0,9.207,32.4a17.465,17.465,0,0,0,6.319,1.785,16.661,16.661,0,0,0,11.436-3.313,17.352,17.352,0,0,0,4.156-4.483,16.778,16.778,0,0,0,2.49-10.915c-.109-.847-.265-1.676-.45-2.5L31.852,7.073q-.6-2.691-1.193-5.377c-.024-.1-.043-.2-.066-.3a1.826,1.826,0,0,0-.677-.985A1.859,1.859,0,0,0,28.771.006H7.887c-.961,0-1.927-.014-2.892,0H4.957A1.914,1.914,0,0,0,3.063,1.9,1.927,1.927,0,0,0,4.957,3.793H25.841c.961,0,1.927.019,2.892,0h.038c-.611-.464-1.217-.928-1.827-1.392.327,1.482.658,2.963.985,4.45q.746,3.344,1.486,6.693c.175.781.36,1.562.464,2.357-.024-.166-.047-.336-.066-.5a15.182,15.182,0,0,1,0,3.986c.024-.166.047-.336.066-.5a15.221,15.221,0,0,1-1.032,3.787c.062-.151.128-.3.189-.454a15.28,15.28,0,0,1-1.941,3.337l.3-.383a15.118,15.118,0,0,1-2.722,2.722l.383-.3a15.268,15.268,0,0,1-3.3,1.927c.151-.062.3-.128.454-.189a15.154,15.154,0,0,1-3.834,1.051c.166-.024.336-.047.5-.066a15.4,15.4,0,0,1-4.014,0c.166.024.336.047.5.066a15.155,15.155,0,0,1-3.834-1.051c.151.062.3.128.454.189a15.236,15.236,0,0,1-3.3-1.927l.383.3A15.272,15.272,0,0,1,6.343,25.17l.3.383A15.36,15.36,0,0,1,4.7,22.216c.062.151.128.3.189.454a15.221,15.221,0,0,1-1.032-3.787c.024.166.047.336.066.5a15.182,15.182,0,0,1,0-3.986c-.024.166-.047.336-.066.5.095-.705.256-1.4.407-2.1.208-.947.417-1.889.63-2.835Q5.657,7.5,6.429,4.035c.123-.544.241-1.089.364-1.633A2,2,0,0,0,6.6.944,1.894,1.894,0,0,0,4.015.262,1.94,1.94,0,0,0,3.134,1.4Z" transform="translate(710.641 2140)" fill="#dcb97b"/><path d="M0,1.9V14.988a1.914,1.914,0,0,0,1.893,1.893,1.927,1.927,0,0,0,1.893-1.893V1.9A1.914,1.914,0,0,0,1.893,0,1.927,1.927,0,0,0,0,1.9Z" transform="translate(725.82 2170.476)" fill="#dcb97b"/><path d="M1.9,47.338H17.364c.715,0,1.434.014,2.149,0h.028a1.893,1.893,0,1,0,0-3.787H4.073c-.715,0-1.434-.014-2.149,0H1.9a1.893,1.893,0,0,0,0,3.787ZM13.648,18.847c-.355-1.008-.71-2.021-1.065-3.029q-.845-2.414-1.695-4.828c-.128-.369-.26-.734-.388-1.1L8.172,12.215c1.193.17,2.381.336,3.574.506l.511.071a1.918,1.918,0,0,0,1.008,0A1.878,1.878,0,0,0,14.1,12.3a1.953,1.953,0,0,0,.488-1.841c-.213-1.018-.421-2.04-.634-3.058q-.511-2.45-1.018-4.9c-.076-.374-.156-.748-.232-1.117A1.914,1.914,0,0,0,11.835.258,1.937,1.937,0,0,0,10.378.069,1.9,1.9,0,0,0,9.246.94,2.075,2.075,0,0,0,9.057,2.4c.213,1.018.421,2.04.634,3.058q.511,2.45,1.018,4.9c.076.374.156.748.232,1.117L13.27,9.143c-1.193-.17-2.381-.336-3.574-.506l-.511-.071a1.918,1.918,0,0,0-1.008,0,1.9,1.9,0,0,0-1.325,2.329c.355,1.008.71,2.021,1.065,3.029q.845,2.414,1.695,4.828c.128.369.26.734.388,1.1a2.021,2.021,0,0,0,.871,1.131,1.937,1.937,0,0,0,1.458.189,1.9,1.9,0,0,0,1.131-.871A1.874,1.874,0,0,0,13.648,18.847Z" transform="translate(716.871 2140.019)" fill="#dcb97b"/></g></svg>