<svg xmlns="http://www.w3.org/2000/svg" width="91" height="91" viewBox="0 0 91 91"><g transform="translate(-971 -2119)"><g transform="translate(971 2119)" fill="none" stroke="#dcb97b" stroke-width="2"><circle cx="45.5" cy="45.5" r="45.5" stroke="none"/><circle cx="45.5" cy="45.5" r="44.5" fill="none"/></g><path d="M33.3,20.454a5.812,5.812,0,0,0,3.471-1,5.69,5.69,0,0,0,2.356-3.509,17.748,17.748,0,0,0,.125-3.115c0-2.375.014-4.755,0-7.134a5.556,5.556,0,0,0-1-3.216A5.689,5.689,0,0,0,34.784.138,7.06,7.06,0,0,0,33.1.008,6.074,6.074,0,0,0,30.76.614a5.707,5.707,0,0,0-2.788,3.154,9.17,9.17,0,0,0-.341,3.394v7.476a6.156,6.156,0,0,0,.611,2.683,5.692,5.692,0,0,0,3.154,2.788,5.281,5.281,0,0,0,1.909.346,1.923,1.923,0,0,0,0-3.846,3.914,3.914,0,0,1-.529-.038c.168.024.341.048.51.067a3.856,3.856,0,0,1-.928-.26c.154.062.308.13.462.192A3.861,3.861,0,0,1,32,16.094l.389.3a4.1,4.1,0,0,1-.707-.707l.3.389a3.861,3.861,0,0,1-.476-.817c.062.154.13.308.192.462a3.857,3.857,0,0,1-.26-.928c.024.168.048.341.067.51a9.734,9.734,0,0,1-.038-1.3V6.647a11.217,11.217,0,0,1,.038-1.5c-.024.168-.048.341-.067.51a3.857,3.857,0,0,1,.26-.928c-.062.154-.13.308-.192.462a3.861,3.861,0,0,1,.476-.817l-.3.389a4.1,4.1,0,0,1,.707-.707l-.389.3a3.861,3.861,0,0,1,.817-.476c-.154.062-.308.13-.462.192a3.857,3.857,0,0,1,.928-.26c-.168.024-.341.048-.51.067a5.182,5.182,0,0,1,1.336,0c-.168-.024-.341-.048-.51-.067a3.857,3.857,0,0,1,.928.26c-.154-.062-.308-.13-.462-.192a3.861,3.861,0,0,1,.817.476l-.389-.3a4.1,4.1,0,0,1,.707.707l-.3-.389a3.861,3.861,0,0,1,.476.817c-.062-.154-.13-.308-.192-.462a3.856,3.856,0,0,1,.26.928c-.024-.168-.048-.341-.067-.51a9.735,9.735,0,0,1,.038,1.3V13.8a11.217,11.217,0,0,1-.038,1.5c.024-.168.048-.341.067-.51a3.856,3.856,0,0,1-.26.928c.063-.154.13-.308.192-.462a3.861,3.861,0,0,1-.476.817l.3-.389a4.1,4.1,0,0,1-.707.707l.389-.3a3.861,3.861,0,0,1-.817.476c.154-.062.308-.13.462-.192a3.856,3.856,0,0,1-.928.26c.168-.024.341-.048.51-.067a6.49,6.49,0,0,1-.808.038,1.923,1.923,0,1,0,0,3.846Zm-27.624,0a5.812,5.812,0,0,0,3.471-1,5.69,5.69,0,0,0,2.356-3.509,17.747,17.747,0,0,0,.125-3.115c0-2.375.014-4.755,0-7.134a5.556,5.556,0,0,0-1-3.216A5.689,5.689,0,0,0,7.16.138,7.06,7.06,0,0,0,5.477.008,6.074,6.074,0,0,0,3.136.614,5.707,5.707,0,0,0,.348,3.767,9.17,9.17,0,0,0,.006,7.161v7.476A6.156,6.156,0,0,0,.617,17.32a5.692,5.692,0,0,0,3.154,2.788,5.281,5.281,0,0,0,1.909.346,1.923,1.923,0,0,0,0-3.846,3.914,3.914,0,0,1-.529-.038c.168.024.341.048.51.067a3.856,3.856,0,0,1-.928-.26c.154.062.308.13.462.192a3.861,3.861,0,0,1-.817-.476l.389.3a4.1,4.1,0,0,1-.707-.707l.3.389a3.861,3.861,0,0,1-.476-.817c.062.154.13.308.192.462a3.856,3.856,0,0,1-.26-.928c.024.168.048.341.067.51a9.735,9.735,0,0,1-.038-1.3V6.647a11.217,11.217,0,0,1,.038-1.5c-.024.168-.048.341-.067.51a3.856,3.856,0,0,1,.26-.928c-.062.154-.13.308-.192.462a3.861,3.861,0,0,1,.476-.817l-.3.389a4.1,4.1,0,0,1,.707-.707l-.389.3a3.861,3.861,0,0,1,.817-.476c-.154.062-.308.13-.462.192a3.856,3.856,0,0,1,.928-.26c-.168.024-.341.048-.51.067a5.182,5.182,0,0,1,1.336,0c-.168-.024-.341-.048-.51-.067a3.856,3.856,0,0,1,.928.26c-.154-.062-.308-.13-.462-.192a3.861,3.861,0,0,1,.817.476l-.389-.3a4.1,4.1,0,0,1,.707.707l-.3-.389a3.861,3.861,0,0,1,.476.817c-.062-.154-.13-.308-.192-.462a3.857,3.857,0,0,1,.26.928c-.024-.168-.048-.341-.067-.51a9.735,9.735,0,0,1,.038,1.3V13.8a11.217,11.217,0,0,1-.038,1.5c.024-.168.048-.341.067-.51a3.856,3.856,0,0,1-.26.928c.062-.154.13-.308.192-.462a3.861,3.861,0,0,1-.476.817l.3-.389a4.1,4.1,0,0,1-.707.707l.389-.3a3.861,3.861,0,0,1-.817.476c.154-.062.308-.13.462-.192a3.856,3.856,0,0,1-.928.26c.168-.024.341-.048.51-.067a6.49,6.49,0,0,1-.808.038,1.923,1.923,0,0,0,0,3.846Z" transform="translate(997.029 2157.66)" fill="#dcb97b"/><path d="M3.846,30.828v-10.6A22.477,22.477,0,0,1,4,17.271c-.024.168-.048.341-.067.51a17.885,17.885,0,0,1,1.231-4.5c-.062.154-.13.308-.192.462A17.958,17.958,0,0,1,7.283,9.79l-.3.389A18.184,18.184,0,0,1,10.2,6.964l-.389.3a18.15,18.15,0,0,1,3.947-2.312c-.154.062-.308.13-.462.192a17.885,17.885,0,0,1,4.5-1.231c-.168.024-.341.048-.51.067a18.137,18.137,0,0,1,4.678,0c-.168-.024-.341-.048-.51-.067a17.885,17.885,0,0,1,4.5,1.231c-.154-.062-.308-.13-.462-.192a17.958,17.958,0,0,1,3.947,2.312l-.389-.3a18.184,18.184,0,0,1,3.216,3.216l-.3-.389a18.149,18.149,0,0,1,2.312,3.947c-.062-.154-.13-.308-.192-.462a17.886,17.886,0,0,1,1.231,4.5c-.024-.168-.048-.341-.067-.51a23.294,23.294,0,0,1,.154,3.062v11.62a20.738,20.738,0,0,1-.077,2.678c.024-.168.048-.341.067-.51a8.5,8.5,0,0,1-.577,2.12c.062-.154.13-.308.192-.462a8.6,8.6,0,0,1-1.12,1.913l.3-.389a8.682,8.682,0,0,1-1.514,1.514l.389-.3a8.868,8.868,0,0,1-1.913,1.12c.154-.062.308-.13.462-.192a8.554,8.554,0,0,1-2.12.577c.168-.024.341-.048.51-.067a17.493,17.493,0,0,1-2.245.077h-3.5a1.923,1.923,0,0,0,0,3.846h3.543c.447,0,.894.01,1.341,0a10.761,10.761,0,0,0,3.952-.913,10.225,10.225,0,0,0,5.024-4.769,11.017,11.017,0,0,0,1.1-3.918c.034-.356.034-.712.034-1.072V25.742c0-2.043,0-4.086,0-6.13a19.311,19.311,0,0,0-1.144-6.581,20.4,20.4,0,0,0-3.548-6.115A19.48,19.48,0,0,0,23.129.305,20.285,20.285,0,0,0,15.8.363,19.208,19.208,0,0,0,9.485,2.82,20,20,0,0,0,1.038,13.333,19.453,19.453,0,0,0,0,19.626v11.2a1.944,1.944,0,0,0,1.923,1.923A1.961,1.961,0,0,0,3.846,30.828Z" transform="translate(997.036 2141.474)" fill="#dcb97b"/><path d="M8.781,4.769a2.736,2.736,0,0,1-.029.4c.024-.168.048-.341.067-.51a3.383,3.383,0,0,1-.187.687c.062-.154.13-.308.192-.462a3.232,3.232,0,0,1-.385.659l.3-.389a2.957,2.957,0,0,1-.49.49l.389-.3a3.107,3.107,0,0,1-.659.385c.154-.062.308-.13.462-.192a2.858,2.858,0,0,1-.687.187c.168-.024.341-.048.51-.067a15.089,15.089,0,0,1-1.923.029,16.515,16.515,0,0,1-1.952-.024c.168.024.341.048.51.067a3.145,3.145,0,0,1-.721-.2c.154.062.308.13.462.192a3.184,3.184,0,0,1-.63-.37l.389.3a3.254,3.254,0,0,1-.514-.514l.3.389a3.184,3.184,0,0,1-.37-.63c.062.154.13.308.192.462a3.079,3.079,0,0,1-.2-.721c.024.168.048.341.067.51a3.054,3.054,0,0,1,0-.784c-.024.168-.048.341-.067.51A3.383,3.383,0,0,1,4,4.187c-.062.154-.13.308-.192.462a3.232,3.232,0,0,1,.385-.659l-.3.389a2.957,2.957,0,0,1,.49-.49l-.389.3a3.107,3.107,0,0,1,.659-.385c-.154.062-.308.13-.462.192a2.858,2.858,0,0,1,.687-.187c-.168.024-.341.048-.51.067a15.089,15.089,0,0,1,1.923-.029,16.515,16.515,0,0,1,1.952.024c-.168-.024-.341-.048-.51-.067a3.145,3.145,0,0,1,.721.2c-.154-.062-.308-.13-.462-.192a3.183,3.183,0,0,1,.63.37l-.389-.3a3.254,3.254,0,0,1,.514.514L8.444,4a3.183,3.183,0,0,1,.37.63c-.062-.154-.13-.308-.192-.462a3.079,3.079,0,0,1,.2.721c-.024-.168-.048-.341-.067-.51a3.45,3.45,0,0,1,.029.385A2.006,2.006,0,0,0,9.343,6.13a1.924,1.924,0,0,0,3.284-1.361A4.762,4.762,0,0,0,11.9,2.24,4.827,4.827,0,0,0,10.069.548,5.09,5.09,0,0,0,7.843,0H4.767A4.975,4.975,0,0,0,2.473.591,4.971,4.971,0,0,0,.791,2.149,4.779,4.779,0,0,0,.026,4.365a4.67,4.67,0,0,0,.49,2.543A4.792,4.792,0,0,0,2.18,8.764a5.092,5.092,0,0,0,2.961.769H7.853a4.979,4.979,0,0,0,2.3-.591,4.819,4.819,0,0,0,2.476-4.178A1.944,1.944,0,0,0,10.7,2.841,1.965,1.965,0,0,0,8.781,4.769Z" transform="translate(1010.596 2178.65)" fill="#dcb97b"/></g></svg>