<svg xmlns="http://www.w3.org/2000/svg" width="12.292" height="12.292" viewBox="0 0 12.292 12.292"><path d="M9.428,2.126a.738.738,0,1,0,.521.216.738.738,0,0,0-.521-.216Zm2.827,1.487a4.665,4.665,0,0,0-.283-1.493,3.036,3.036,0,0,0-.713-1.088A2.889,2.889,0,0,0,10.171.326,4.486,4.486,0,0,0,8.678.037C8.026,0,7.818,0,6.146,0S4.265,0,3.614.037A4.486,4.486,0,0,0,2.12.326a2.938,2.938,0,0,0-1.088.707A2.889,2.889,0,0,0,.326,2.12,4.486,4.486,0,0,0,.037,3.614C0,4.265,0,4.474,0,6.146S0,8.026.037,8.678a4.486,4.486,0,0,0,.289,1.493,2.889,2.889,0,0,0,.707,1.088,2.938,2.938,0,0,0,1.088.707,4.486,4.486,0,0,0,1.493.289c.651.037.86.037,2.532.037s1.881,0,2.532-.037a4.486,4.486,0,0,0,1.493-.289,2.889,2.889,0,0,0,1.088-.707,2.981,2.981,0,0,0,.713-1.088,4.665,4.665,0,0,0,.283-1.493c0-.651.037-.86.037-2.532s0-1.881-.037-2.532ZM11.149,8.6a3.448,3.448,0,0,1-.209,1.143,1.881,1.881,0,0,1-.461.707,1.96,1.96,0,0,1-.707.461,3.448,3.448,0,0,1-1.143.209c-.615.031-.842.037-2.458.037s-1.844,0-2.458-.037A3.522,3.522,0,0,1,2.52,10.94a2.01,2.01,0,0,1-.676-.461,1.844,1.844,0,0,1-.455-.707A3.4,3.4,0,0,1,1.143,8.6c0-.615-.037-.842-.037-2.458s0-1.844.037-2.458A3.4,3.4,0,0,1,1.358,2.52a1.844,1.844,0,0,1,.486-.676,1.93,1.93,0,0,1,.676-.492,3.522,3.522,0,0,1,1.168-.209c.615,0,.842-.037,2.458-.037s1.844,0,2.458.037a3.448,3.448,0,0,1,1.143.209,1.881,1.881,0,0,1,.731.492,1.881,1.881,0,0,1,.461.676,3.448,3.448,0,0,1,.209,1.168c.031.615.037.842.037,2.458S11.179,7.99,11.149,8.6Zm-5-5.611a3.147,3.147,0,1,0,1.209.237,3.153,3.153,0,0,0-1.209-.237Zm0,5.2a2.047,2.047,0,1,1,.783-.156,2.047,2.047,0,0,1-.783.156Z" fill="#fff"/></svg>