<svg xmlns="http://www.w3.org/2000/svg" width="22.25" height="12.319" viewBox="0 0 22.25 12.319"><path d="M582.558,402.871h3.879a.383.383,0,0,1,.347.226,22.724,22.724,0,0,0,3.285,5.235.262.262,0,0,0,.465-.036c.409-.993,1.163-3.411-.3-5.128a.3.3,0,0,1,.108-.47,5.254,5.254,0,0,1,4.33-.075.824.824,0,0,1,.489.749l.33,4.979a.355.355,0,0,0,.419.352c1.621-.344,2.576-2.773,3.52-5.309a.8.8,0,0,1,.745-.523h3.571a.474.474,0,0,1,.474.548c-.336,1.8-2.146,4.133-3.092,5.255a1.042,1.042,0,0,0,0,1.343l3.193,3.8a.42.42,0,0,1-.321.69h-4.042a1.188,1.188,0,0,1-.873-.383l-2.826-2.353a.387.387,0,0,0-.562-.049c-.35.425-.323.951-.489,2.143a.763.763,0,0,1-.763.641h-2.764a2.646,2.646,0,0,1-1.136-.251c-1.586-.752-5.919-3.416-8.355-10.877A.391.391,0,0,1,582.558,402.871Z" transform="translate(-582.168 -402.19)" fill="#fff"/></svg>