<svg xmlns="http://www.w3.org/2000/svg" width="129" height="127" viewBox="0 0 129 127"><g transform="translate(-50 -683)"><rect width="129" height="127" transform="translate(50 683)" fill="#fff"/><path d="M192.355,81.224q.574-2.525,1.2-4.962-.33-1.732-.834-3.44l-.1-.334a13.3,13.3,0,0,1-.548-3.781V56.664A7.106,7.106,0,0,0,190.1,60a146.339,146.339,0,0,0-3.53,17.71c-.681,5.065-.937,9.07-2.17,16.224-.823,4.771-1.683,8.641-2.28,11.161l6.207,1.24A197.286,197.286,0,0,1,192.355,81.224Z" transform="translate(-93.631 667.304)" fill="#1a2730"/><path d="M248.847,56.664V68.708a13.3,13.3,0,0,1-.548,3.781l-.1.334q-.505,1.705-.834,3.44.621,2.438,1.2,4.962a197.282,197.282,0,0,1,4.03,25.111l6.207-1.24c-.6-2.519-1.458-6.39-2.28-11.161-1.233-7.154-1.489-11.159-2.17-16.224A146.455,146.455,0,0,0,250.821,60,7.106,7.106,0,0,0,248.847,56.664Z" transform="translate(-118.786 667.304)" fill="#1a2730"/><path d="M207.145,56.724a36.641,36.641,0,0,0,11.148,15.007.22.22,0,0,0,.341-.252l-7.418-18.993Z" transform="translate(-103.279 668.913)" fill="#1a2730"/><path d="M225.137,67.487a1.178,1.178,0,0,0,.006.841l.165.423a.263.263,0,0,0,.412.107,31.776,31.776,0,0,0,9.1-12.134l-4.071-4.237Z" transform="translate(-110.187 668.913)" fill="#1a2730"/><path d="M239.236,70.834a12.374,12.374,0,0,0,.51-3.517V54.7l-7.155-1.64,3.219,3.351a.774.774,0,0,1,.154.841,32.558,32.558,0,0,1-9.792,12.805,22.257,22.257,0,0,1,1.6,4.8,54.094,54.094,0,0,1,.734,13.173l-.03.783a93.981,93.981,0,0,1-1.171,11.611h7.474a4.966,4.966,0,0,0,4.966-4.967,11.29,11.29,0,0,0-.5-3.322,36.27,36.27,0,0,1-.11-20.967Z" transform="translate(-110.615 668.693)" fill="#1a2730"/><path d="M199.829,67.484a11.218,11.218,0,0,0,.462,3.187,37.1,37.1,0,0,1,.045,21.44,11.354,11.354,0,0,0-.507,3.346,4.967,4.967,0,0,0,4.967,4.967h11.569a93.291,93.291,0,0,0,1.183-11.64l.029-.784a53.391,53.391,0,0,0-.722-13.007c-.059-.333-.137-.675-.229-1.022a1.937,1.937,0,0,0-.909-1.177,20.926,20.926,0,0,1-2.634-1.8c-1.236-.989-2.031-1.636-4.729-5.3-3.616-4.908-3.961-6.5-4.747-8.465a.776.776,0,0,1,.157-.826l3.221-3.353-7.155,1.64ZM214.71,78.1a1.057,1.057,0,1,1-1.058,1.057A1.057,1.057,0,0,1,214.71,78.1Zm0,5.364a1.057,1.057,0,1,1-1.058,1.057A1.057,1.057,0,0,1,214.71,83.461Zm0,5.363a1.057,1.057,0,1,1-1.058,1.057A1.057,1.057,0,0,1,214.71,88.824Z" transform="translate(-100.458 668.693)" fill="#1a2730"/></g></svg>