<svg xmlns="http://www.w3.org/2000/svg" width="130" height="127" viewBox="0 0 130 127"><g transform="translate(-208 -683)"><rect width="130" height="127" transform="translate(208 683)" fill="#fff"/><path d="M2199.532,344.872l1.6-11.172a32.74,32.74,0,0,0-1.018-14.416,21.6,21.6,0,0,1-1.611-7.376c-.1-3.06.494-5.833,1.62-11.017.244-1.124.462-2.047.611-2.662a4.842,4.842,0,0,1-1.046-1.1,5.8,5.8,0,0,1-.89-3.336,32.133,32.133,0,0,1,.892-7.4c.028-.117-.109-.187-.139-.233a6.741,6.741,0,0,1-3.268-.905.2.2,0,0,0-.249.19v0c0,4.75-2.477,8.6-5.532,8.6s-5.532-3.851-5.532-8.6v0a.2.2,0,0,0-.25-.19,6.739,6.739,0,0,1-3.267.905c-.03.046-.166.116-.139.233a32.114,32.114,0,0,1,.892,7.4,5.8,5.8,0,0,1-.889,3.336,4.858,4.858,0,0,1-1.047,1.1c.149.615.366,1.538.61,2.662,1.126,5.185,1.725,7.957,1.62,11.017a21.6,21.6,0,0,1-1.611,7.376,32.759,32.759,0,0,0-1.018,14.416l1.6,11.172a1.353,1.353,0,0,0,1.086,1.137,42.679,42.679,0,0,0,15.9,0A1.352,1.352,0,0,0,2199.532,344.872Z" transform="translate(-1917.365 431.206)" fill="#1a2730"/></g></svg>