<svg xmlns="http://www.w3.org/2000/svg" width="128" height="127" viewBox="0 0 128 127"><g transform="translate(-368 -683)"><rect width="128" height="127" transform="translate(368 683)" fill="#fff"/><path d="M1941.912,47.13h-11a1.745,1.745,0,0,0-1.744,1.67l-2.093,47.761a1.5,1.5,0,0,0,1.386,1.563l8.2.627a1.5,1.5,0,0,0,1.61-1.365l3.032-34.218a.63.63,0,0,1,1.255,0l3.032,34.218a1.5,1.5,0,0,0,1.61,1.365l8.2-.627a1.5,1.5,0,0,0,1.386-1.563L1954.684,48.8a1.745,1.745,0,0,0-1.744-1.67h-11.029Z" transform="translate(-1510.257 674.577)" fill="#1a2730"/></g></svg>