<svg xmlns="http://www.w3.org/2000/svg" width="129" height="127" viewBox="0 0 129 127"><g transform="translate(-526 -683)"><rect width="129" height="127" transform="translate(526 683)" fill="#fff"/><rect width="18.465" height="2.71" rx="1.079" transform="translate(580.968 766.876)" fill="#1a2730"/><path d="M196.188,482.1a80.284,80.284,0,0,1,1.749-12.782q.393-1.78.843-3.457a.149.149,0,0,0,0-.047L197.224,451.2a.128.128,0,0,0-.244-.039,73.409,73.409,0,0,0-6.6,30.229.577.577,0,0,0,.493.572l4.652.684A.577.577,0,0,0,196.188,482.1Z" transform="translate(379.132 288.843)" fill="#1a2730"/><path d="M192.485,502.324a.45.45,0,0,0-.514.444v.607a.449.449,0,0,0,.384.444c1.383.2,1.615.228,2.926.419a.45.45,0,0,0,.514-.444v-.607a.449.449,0,0,0-.384-.444C194.028,502.541,193.8,502.515,192.485,502.324Z" transform="translate(378.52 269.089)" fill="#1a2730"/><path d="M244.883,469.321a80.279,80.279,0,0,1,1.749,12.782.577.577,0,0,0,.66.538l4.652-.684a.577.577,0,0,0,.493-.572,73.436,73.436,0,0,0-6.6-30.229.128.128,0,0,0-.244.039l-1.561,14.622a.12.12,0,0,0,0,.047Q244.489,467.541,244.883,469.321Z" transform="translate(358.447 288.843)" fill="#1a2730"/><path d="M250.282,502.743a.449.449,0,0,0-.384.444v.607a.45.45,0,0,0,.514.444c1.311-.191,1.543-.217,2.925-.419a.449.449,0,0,0,.385-.444v-.607a.45.45,0,0,0-.514-.444C251.9,502.515,251.665,502.541,250.282,502.743Z" transform="translate(356.188 269.089)" fill="#1a2730"/><path d="M217.606,423.02c-.045,0-.089,0-.133,0-5.088.119-10.132,7.033-10.132,14.165,0,2.365,2.044,3.534,4.328,4.585l.445.2c.893.4,1.8.8,2.631,1.249a5.7,5.7,0,0,1,2.862,2.806,4.926,4.926,0,0,1,2.068-2.334c.126-.082.256-.163.388-.241.4-.235.82-.455,1.256-.665,2.978-1.438,6.553-2.473,6.553-5.6,0-7.132-5.044-14.047-10.132-14.165C217.694,423.021,217.651,423.02,217.606,423.02Zm6.493,12.136a6.492,6.492,0,0,1-3.5,5.761,6.386,6.386,0,0,0-.793.481l-.034.025a3.943,3.943,0,0,1-4.334,0l-.037-.028a6.425,6.425,0,0,0-.793-.481,6.493,6.493,0,1,1,9.491-5.759Z" transform="translate(372.594 299.661)" fill="#1a2730"/><path d="M226.165,475.674l2.723-25.524a.853.853,0,0,0-.683-.928s-.732-.315-1.741-.672a4.769,4.769,0,0,1-1.551,1.982,17.6,17.6,0,0,1-3.675,2c-.459.206-.933.419-1.383.635-.473.229-.869.438-1.212.641-.127.076-.25.152-.366.227a4.3,4.3,0,0,0-1.837,2.044l-.555,1.494-.556-1.494a5.039,5.039,0,0,0-2.59-2.492c-.688-.375-1.46-.722-2.207-1.056l-.383-.173c-.15-.068-.3-.135-.449-.2a12.623,12.623,0,0,1-3.169-1.9,4.534,4.534,0,0,1-1.226-1.706c-1.009.357-1.74.672-1.74.672a.853.853,0,0,0-.683.928l2.722,25.524a.853.853,0,0,0,.849.763h18.865A.853.853,0,0,0,226.165,475.674ZM212.8,466.1a.252.252,0,0,1-.252.251h-.546a.251.251,0,0,1-.252-.251V455.092a.525.525,0,0,1,1.05,0Zm7.9-2.155a.251.251,0,0,1-.251.252H219.9a.251.251,0,0,1-.251-.252v-8.858a.525.525,0,1,1,1.049,0Z" transform="translate(374.315 289.818)" fill="#1a2730"/></g></svg>