<svg xmlns="http://www.w3.org/2000/svg" width="128" height="127" viewBox="0 0 128 127"><g transform="translate(-685 -683)"><rect width="128" height="127" transform="translate(685 683)" fill="#fff"/><path d="M2155.809,76.292a11.214,11.214,0,0,0-.218,2.2v7.453a.637.637,0,0,0,.637.637H2171.6a3.72,3.72,0,0,1,1.065.156l11.066,3.308a10.321,10.321,0,0,0,2.954.432h19.763a.443.443,0,0,0,.445-.437,4.2,4.2,0,0,0-2.963-4.024,67.007,67.007,0,0,0-8.131-2.078,22.175,22.175,0,0,1-7.165-2.194,21.917,21.917,0,0,1-3.852-2.642c-2.19-1.775-5.239-4.363-8.875-7.836h-.019a9.88,9.88,0,0,1-3.4,2.551l-.231.1c-.347.146-.766.294-1.229.438a19.775,19.775,0,0,1-7.2.823c-2.03-.138-3.768-.262-6.179-.42q-.062,0-.123,0a1.884,1.884,0,0,0-1.726,1.532Z" transform="translate(-1432.553 664.965)" fill="#1a2730"/><path d="M2206.491,100.85h-20.035a10.3,10.3,0,0,1-2.954-.432l-11.066-3.308a3.716,3.716,0,0,0-1.065-.155h-15.485a.9.9,0,0,0-.9.9v3.82a1.461,1.461,0,0,0,1.46,1.461h14.3a1.269,1.269,0,0,0,1.268-1.269V99.006a.039.039,0,0,1,.051-.037l11.438,3.42a10.3,10.3,0,0,0,2.954.432h19.314a1.346,1.346,0,0,0,1.346-1.346A.625.625,0,0,0,2206.491,100.85Z" transform="translate(-1432.319 655.061)" fill="#1a2730"/></g></svg>