<svg xmlns="http://www.w3.org/2000/svg" width="129" height="127" viewBox="0 0 129 127"><g transform="translate(-843 -683)"><rect width="129" height="127" transform="translate(843 683)" fill="#fff"/><path d="M1682.929,203.676a13.613,13.613,0,1,0,3.987-9.626A13.524,13.524,0,0,0,1682.929,203.676Zm13.613-10.628a10.628,10.628,0,1,1-10.628,10.628A10.64,10.64,0,0,1,1696.542,193.049Z" transform="translate(-789.278 543.535)" fill="#1a2730"/><path d="M1707.429,181.346V168.623a2.555,2.555,0,0,0-2.555-2.556h-7.48a2.556,2.556,0,0,0-2.556,2.556v12.723a14.579,14.579,0,0,1,12.591,0Z" transform="translate(-793.869 552.787)" fill="#1a2730"/><path d="M1704.873,248.783a2.555,2.555,0,0,0,2.555-2.556V233.5a14.574,14.574,0,0,1-12.591,0v12.723a2.556,2.556,0,0,0,2.556,2.556Z" transform="translate(-793.869 526.788)" fill="#1a2730"/><path d="M1700.664,207.891h0a.695.695,0,0,0,.993.1h0l4.409-3.708a.7.7,0,0,0-.9-1.067l-3.861,3.247-5.032-6.33a.7.7,0,0,0-1.091.867Z" transform="translate(-793.945 539.754)" fill="#1a2730"/></g></svg>