<svg xmlns="http://www.w3.org/2000/svg" width="128" height="127" viewBox="0 0 128 127"><g transform="translate(-1002 -683)"><rect width="128" height="127" transform="translate(1002 683)" fill="#fff"/><path d="M1082.348-118.877l.076.065a4.138,4.138,0,0,1,1.467,2.744l.475,4.489a1.1,1.1,0,0,0,1.1.986h26.042a1.1,1.1,0,0,0,1.1-.986l.475-4.489a4.142,4.142,0,0,1,1.467-2.744l.077-.065a2.64,2.64,0,0,0,.867-2.678c-.759-3.008-3.206-9.048-10.681-9.757h-12.646c-7.474.709-9.921,6.749-10.681,9.757A2.64,2.64,0,0,0,1082.348-118.877Z" transform="translate(-32.688 863.286)" fill="#1a2730"/><path d="M1086.737-78.432h1.041l3.028-5.488h-3.028Z" transform="translate(-33.913 852.413)" fill="#1a2730"/><path d="M1119.366-111.14c-.378-3.028-1.419-3.6-4.069-3.58s-2.744,3.2-2.744,3.2-.852,9.367-1.136,11.694-3.122,2.12-3.122,2.12h-22.916s-2.839.207-3.122-2.12-1.136-11.694-1.136-11.694-.094-3.186-2.743-3.2-3.69.552-4.068,3.58a32.722,32.722,0,0,0,3.662,16.916,4.89,4.89,0,0,0,4.271,2.5h29.19a4.893,4.893,0,0,0,4.272-2.5A32.73,32.73,0,0,0,1119.366-111.14Z" transform="translate(-31.042 859.479)" fill="#1a2730"/><path d="M1086.757-102.509a1.119,1.119,0,0,0-1.1,1.3l.448,2.786a2.84,2.84,0,0,0,2.8,2.39h21.1a2.841,2.841,0,0,0,2.8-2.39l.448-2.786a1.118,1.118,0,0,0-1.1-1.3Z" transform="translate(-33.661 856.677)" fill="#1a2730"/><path d="M1115.126-83.92l3.028,5.488h1.041l-1.041-5.488Z" transform="translate(-40.427 852.413)" fill="#1a2730"/></g></svg>